<svg viewBox="0 0 680 680" xmlns="http://www.w3.org/2000/svg" role="img">
<title>AlgoPlatform</title>
<style>
.gear { fill: #7c5cfc; }
.sym { fill: none; stroke: #fff; stroke-width: 28; stroke-linecap: round; stroke-linejoin: round; }
</style>

<path class="gear" transform="translate(340,340) scale(1.35)" d="
M 0,-138 L -23,-155 L -35,-175 L 0,-175 L 35,-175 L 23,-155 Z
M 67,-120 L 56,-142 L 72,-158 L 95,-134 L 118,-110 L 96,-108 Z
M 120,-67 L 142,-56 L 158,-72 L 134,-95 L 110,-118 L 108,-96 Z
M 138,0 L 155,23 L 175,35 L 175,0 L 175,-35 L 155,-23 Z
M 120,67 L 142,56 L 158,72 L 134,95 L 110,118 L 108,96 Z
M 67,120 L 56,142 L 72,158 L 95,134 L 118,110 L 96,108 Z
M 0,138 L 23,155 L 35,175 L 0,175 L -35,175 L -23,155 Z
M -67,120 L -56,142 L -72,158 L -95,134 L -118,110 L -96,108 Z
M -120,67 L -142,56 L -158,72 L -134,95 L -110,118 L -108,96 Z
M -138,0 L -155,23 L -175,35 L -175,0 L -175,-35 L -155,-23 Z
M -120,-67 L -142,-56 L -158,-72 L -134,-95 L -110,-118 L -108,-96 Z
M -67,-120 L -56,-142 L -72,-158 L -95,-134 L -118,-110 L -96,-108 Z
"/>

<circle cx="340" cy="340" r="186" class="gear"/>
<circle cx="340" cy="340" r="135" fill="transparent"/>

<path d="M 388,258 C 388,258 360,242 334,247 C 306,253 290,274 302,300 C 314,326 342,332 364,344 C 388,356 402,380 393,404 C 384,426 356,433 330,428 C 304,423 286,407 286,407" class="sym"/>
<line x1="340" y1="232" x2="340" y2="448" class="sym"/>
</svg>
